<?xml version="1.0" standalone="no"?>
<!DOCTYPE svg PUBLIC "-//W3C//DTD SVG 20010904//EN"
 "http://www.w3.org/TR/2001/REC-SVG-20010904/DTD/svg10.dtd">
<svg version="1.0" xmlns="http://www.w3.org/2000/svg"
 width="506.000000pt" height="506.000000pt" viewBox="0 0 506.000000 506.000000"
 preserveAspectRatio="xMidYMid meet">

<g transform="translate(0.000000,506.000000) scale(0.100000,-0.100000)"
fill="#000000" stroke="none">
<path d="M2330 5054 c-167 -19 -294 -42 -423 -74 -615 -153 -1146 -532 -1500
-1070 -137 -210 -286 -547 -288 -656 -1 -41 -2 -44 -8 -19 -6 28 -7 26 -23
-31 -30 -107 -66 -305 -79 -428 -15 -149 -7 -484 15 -621 20 -126 75 -353 87
-361 5 -3 9 -16 9 -30 0 -36 83 -240 156 -384 342 -674 984 -1167 1724 -1324
357 -76 808 -71 1117 13 40 11 42 14 46 54 l4 42 1 -42 2 -42 53 15 c222 65
413 149 627 275 299 177 622 498 821 815 147 233 289 579 329 802 53 290 70
539 51 717 -6 55 -16 138 -21 185 -19 185 -101 472 -190 670 -136 301 -330
574 -567 799 -108 103 -108 103 -114 75 l-7 -29 -1 32 c-1 25 -12 40 -53 76
-87 73 -217 159 -232 154 -8 -3 -16 2 -18 11 -6 21 -156 105 -296 166 -203 89
-442 158 -662 191 -100 15 -482 28 -560 19z m147 -341 c-2 -21 -4 -6 -4 32 0
39 2 55 4 38 2 -18 2 -50 0 -70z m316 -272 c4 -29 2 -40 -4 -30 -8 13 -14 88
-5 78 2 -2 6 -24 9 -48z m64 12 c-3 -10 -5 -4 -5 12 0 17 2 24 5 18 2 -7 2
-21 0 -30z m-720 -10 c-3 -10 -5 -4 -5 12 0 17 2 24 5 18 2 -7 2 -21 0 -30z
m-225 -45 c-7 -7 -12 -8 -12 -2 0 14 12 26 19 19 2 -3 -1 -11 -7 -17z m84 -86
c-11 -10 -13 3 -7 43 l6 40 3 -39 c2 -21 1 -41 -2 -44z m621 16 c-2 -13 -4 -5
-4 17 -1 22 1 32 4 23 2 -10 2 -28 0 -40z m-710 -10 c-3 -7 -5 -2 -5 12 0 14
2 19 5 13 2 -7 2 -19 0 -25z m2290 -190 c-2 -24 -4 -7 -4 37 0 44 2 63 4 43 2
-21 2 -57 0 -80z m-1760 25 c-3 -10 -5 -4 -5 12 0 17 2 24 5 18 2 -7 2 -21 0
-30z m430 0 c-3 -10 -5 -4 -5 12 0 17 2 24 5 18 2 -7 2 -21 0 -30z m-351 -38
c-9 -14 -22 -25 -29 -25 -9 0 -9 2 0 8 6 4 17 21 24 37 6 17 13 24 16 17 3 -7
-2 -24 -11 -37z m271 3 c-3 -8 -6 -5 -6 6 -1 11 2 17 5 13 3 -3 4 -12 1 -19z
m-880 -20 c-3 -8 -6 -5 -6 6 -1 11 2 17 5 13 3 -3 4 -12 1 -19z m90 -55 c-2
-16 -4 -5 -4 22 0 28 2 40 4 28 2 -13 2 -35 0 -50z m-1300 25 c-3 -7 -5 -2 -5
12 0 14 2 19 5 13 2 -7 2 -19 0 -25z m1210 -50 c-3 -8 -6 -5 -6 6 -1 11 2 17
5 13 3 -3 4 -12 1 -19z m1600 -180 c-2 -18 -4 -4 -4 32 0 36 2 50 4 33 2 -18
2 -48 0 -65z m-1290 15 c-2 -16 -4 -5 -4 22 0 28 2 40 4 28 2 -13 2 -35 0 -50z
m260 -10 c-2 -16 -4 -3 -4 27 0 30 2 43 4 28 2 -16 2 -40 0 -55z m-350 20 c-3
-10 -5 -4 -5 12 0 17 2 24 5 18 2 -7 2 -21 0 -30z m2090 5 c-3 -8 -6 -5 -6 6
-1 11 2 17 5 13 3 -3 4 -12 1 -19z m-2909 -144 l-3 -49 -5 57 c-3 31 -1 53 3
49 5 -5 7 -30 5 -57z m2618 19 c-10 -26 -18 -8 -9 23 5 21 8 24 11 11 2 -10 1
-25 -2 -34z m81 -5 c-3 -8 -6 -5 -6 6 -1 11 2 17 5 13 3 -3 4 -12 1 -19z
m-1290 1 c43 -6 118 -24 167 -40 214 -71 340 -197 406 -404 18 -56 24 -102 28
-225 6 -192 14 -203 75 -107 72 112 235 277 274 277 27 0 34 -48 23 -174 -19
-221 -92 -422 -215 -591 -143 -195 -168 -247 -186 -371 -19 -140 16 -288 98
-407 58 -86 130 -150 229 -204 l77 -41 -39 -20 c-21 -11 -80 -33 -130 -50
-258 -87 -509 -93 -855 -22 -365 75 -640 211 -812 401 -201 222 -290 393 -333
643 -22 127 -14 396 15 516 75 304 203 512 391 640 148 100 291 151 520 184
55 8 193 5 267 -5z m-1500 -21 c-3 -8 -6 -5 -6 6 -1 11 2 17 5 13 3 -3 4 -12
1 -19z m-29 -99 c-3 -8 -7 -3 -11 10 -4 17 -3 21 5 13 5 -5 8 -16 6 -23z
m-771 -21 c-3 -8 -6 -5 -6 6 -1 11 2 17 5 13 3 -3 4 -12 1 -19z m680 -30 c-2
-13 -4 -5 -4 17 -1 22 1 32 4 23 2 -10 2 -28 0 -40z m-270 5 c-3 -10 -5 -4 -5
12 0 17 2 24 5 18 2 -7 2 -21 0 -30z m3330 0 c-3 -10 -5 -4 -5 12 0 17 2 24 5
18 2 -7 2 -21 0 -30z m-3380 -10 c-3 -10 -5 -4 -5 12 0 17 2 24 5 18 2 -7 2
-21 0 -30z m405 -35 c-8 -8 -9 -4 -5 13 4 13 8 18 11 10 2 -7 -1 -18 -6 -23z
m-68 -4 c3 -8 2 -12 -4 -9 -6 3 -10 10 -10 16 0 14 7 11 14 -7z m193 -116 c-2
-18 -4 -6 -4 27 0 33 2 48 4 33 2 -15 2 -42 0 -60z m-90 10 c-2 -13 -4 -5 -4
17 -1 22 1 32 4 23 2 -10 2 -28 0 -40z m3110 -5 c-3 -10 -5 -2 -5 17 0 19 2
27 5 18 2 -10 2 -26 0 -35z m-2840 -145 c-2 -18 -4 -6 -4 27 0 33 2 48 4 33 2
-15 2 -42 0 -60z m-1010 15 c-3 -10 -5 -4 -5 12 0 17 2 24 5 18 2 -7 2 -21 0
-30z m3420 0 c-3 -10 -5 -4 -5 12 0 17 2 24 5 18 2 -7 2 -21 0 -30z m610 -5
c-3 -7 -5 -2 -5 12 0 14 2 19 5 13 2 -7 2 -19 0 -25z m-210 -165 c-2 -16 -4
-5 -4 22 0 28 2 40 4 28 2 -13 2 -35 0 -50z m-2938 -47 c129 -149 126 -141
112 -244 -6 -49 -11 -144 -11 -213 l-1 -124 -24 30 c-67 82 -125 230 -155 399
-27 146 -27 236 0 236 3 0 39 -38 79 -84z m3558 -38 c-3 -8 -6 -5 -6 6 -1 11
2 17 5 13 3 -3 4 -12 1 -19z m-760 -35 c-3 -10 -5 -4 -5 12 0 17 2 24 5 18 2
-7 2 -21 0 -30z m680 -5 c-3 -7 -5 -2 -5 12 0 14 2 19 5 13 2 -7 2 -19 0 -25z
m75 -30 c-6 -6 -7 0 -4 19 5 21 7 23 10 9 2 -10 0 -22 -6 -28z m-985 -100 c-3
-7 -5 -2 -5 12 0 14 2 19 5 13 2 -7 2 -19 0 -25z m382 -300 c-2 -77 -6 -69
-11 20 -2 28 0 52 5 52 4 0 6 -33 6 -72z m-3002 -25 c-2 -16 -4 -5 -4 22 0 28
2 40 4 28 2 -13 2 -35 0 -50z m-90 20 c-3 -10 -5 -4 -5 12 0 17 2 24 5 18 2
-7 2 -21 0 -30z m2605 -75 c-7 -7 -12 -8 -12 -2 0 14 12 26 19 19 2 -3 -1 -11
-7 -17z m76 -54 l-3 -39 -5 47 c-3 26 -1 43 3 39 5 -5 7 -26 5 -47z m-91 -21
c-3 -10 -5 -2 -5 17 0 19 2 27 5 18 2 -10 2 -26 0 -35z m1110 10 c-3 -10 -5
-4 -5 12 0 17 2 24 5 18 2 -7 2 -21 0 -30z m-3647 -63 c0 -5 -2 -10 -4 -10 -3
0 -8 5 -11 10 -3 6 -1 10 4 10 6 0 11 -4 11 -10z m2199 -181 c-6 -25 -6 -54 0
-77 9 -34 9 -35 -4 -18 -17 23 -19 73 -5 110 14 39 19 31 9 -15z m91 -34 c0
-30 -3 -56 -7 -58 -5 -3 -8 23 -8 58 0 35 3 61 8 58 4 -2 7 -28 7 -58z m637
-22 c-2 -16 -4 -3 -4 27 0 30 2 43 4 28 2 -16 2 -40 0 -55z m643 27 c-6 -37
-8 -40 -9 -13 -1 29 8 68 14 61 1 -2 -1 -23 -5 -48z m72 -62 c-8 -8 -9 -4 -5
13 4 13 8 18 11 10 2 -7 -1 -18 -6 -23z m-4265 -80 c-2 -13 -4 -5 -4 17 -1 22
1 32 4 23 2 -10 2 -28 0 -40z m90 15 c-3 -10 -5 -4 -5 12 0 17 2 24 5 18 2 -7
2 -21 0 -30z m3233 8 c0 -6 -4 -13 -10 -16 -5 -3 -10 1 -10 9 0 9 5 16 10 16
6 0 10 -4 10 -9z m-3551 -122 c-6 -12 -9 -44 -7 -71 3 -29 2 -44 -3 -36 -18
28 -5 128 17 128 2 0 0 -10 -7 -21z m3408 -20 c-8 -21 -13 -26 -15 -15 -2 10
2 23 8 31 18 22 20 18 7 -16z m-320 -71 c-2 -18 -4 -4 -4 32 0 36 2 50 4 33 2
-18 2 -48 0 -65z m-3000 15 c-2 -16 -4 -5 -4 22 0 28 2 40 4 28 2 -13 2 -35 0
-50z m3380 5 c-2 -13 -4 -5 -4 17 -1 22 1 32 4 23 2 -10 2 -28 0 -40z m623
-23 c9 -28 9 -29 -5 -11 -8 11 -14 34 -14 50 1 20 3 24 6 11 2 -11 8 -33 13
-50z m67 28 c-3 -10 -5 -4 -5 12 0 17 2 24 5 18 2 -7 2 -21 0 -30z m-650 -145
c-2 -13 -4 -3 -4 22 0 25 2 35 4 23 2 -13 2 -33 0 -45z m70 40 c-3 -8 -6 -5
-6 6 -1 11 2 17 5 13 3 -3 4 -12 1 -19z m0 -50 c-3 -8 -6 -5 -6 6 -1 11 2 17
5 13 3 -3 4 -12 1 -19z m540 -150 c-2 -18 -4 -6 -4 27 0 33 2 48 4 33 2 -15 2
-42 0 -60z m-3239 -60 c7 -7 12 -19 12 -27 -1 -12 -4 -11 -12 4 -6 11 -16 23
-22 27 -7 5 -8 8 0 8 5 0 15 -5 22 -12z m9 -100 c-3 -7 -5 -2 -5 12 0 14 2 19
5 13 2 -7 2 -19 0 -25z m910 -125 c-2 -16 -4 -5 -4 22 0 28 2 40 4 28 2 -13 2
-35 0 -50z m260 -10 c-2 -16 -4 -3 -4 27 0 30 2 43 4 28 2 -16 2 -40 0 -55z
m-350 20 c-3 -10 -5 -4 -5 12 0 17 2 24 5 18 2 -7 2 -21 0 -30z m2380 5 c-3
-8 -6 -5 -6 6 -1 11 2 17 5 13 3 -3 4 -12 1 -19z m-1680 -50 c-2 -13 -4 -3 -4
22 0 25 2 35 4 23 2 -13 2 -33 0 -45z m-1310 30 c-3 -8 -6 -5 -6 6 -1 11 2 17
5 13 3 -3 4 -12 1 -19z m2410 -125 c-3 -10 -5 -4 -5 12 0 17 2 24 5 18 2 -7 2
-21 0 -30z m-2090 -195 c-3 -7 -5 -2 -5 12 0 14 2 19 5 13 2 -7 2 -19 0 -25z
m1330 -270 c-2 -18 -4 -4 -4 32 0 36 2 50 4 33 2 -18 2 -48 0 -65z m-1380 15
c-2 -16 -4 -5 -4 22 0 28 2 40 4 28 2 -13 2 -35 0 -50z m90 -5 c-2 -13 -4 -3
-4 22 0 25 2 35 4 23 2 -13 2 -33 0 -45z m1670 10 c-2 -13 -4 -5 -4 17 -1 22
1 32 4 23 2 -10 2 -28 0 -40z m-411 -210 c-21 -30 -20 -107 1 -138 15 -22 15
-24 1 -12 -23 18 -41 77 -33 104 8 26 33 68 41 68 3 0 -2 -10 -10 -22z m84
-68 c0 -33 -6 -55 -20 -71 l-20 -24 15 30 c19 39 19 104 -1 135 l-16 25 21
-24 c15 -16 21 -37 21 -71z m287 -27 c-2 -16 -4 -3 -4 27 0 30 2 43 4 28 2
-16 2 -40 0 -55z"/>
<path d="M2034 3370 c-18 -12 -46 -47 -65 -83 -27 -51 -33 -73 -33 -123 0
-130 100 -218 192 -170 40 21 99 86 117 128 36 88 8 208 -58 248 -42 26 -112
26 -153 0z"/>
<path d="M2724 3291 c-141 -64 -154 -348 -20 -430 75 -47 168 -17 213 68 43
82 28 229 -33 308 -50 66 -99 82 -160 54z"/>
<path d="M2256 2700 c-21 -26 -26 -42 -26 -85 0 -92 37 -138 96 -118 46 15 68
55 68 119 -1 71 -26 108 -76 112 -29 3 -40 -2 -62 -28z"/>
</g>
</svg>
